<svg width="1352.7539915725708px" height="137.07483575011435px" xmlns="http://www.w3.org/2000/svg" viewBox="-426.3769957862854 6.462582124942827 1352.7539915725708 137.07483575011435" style="background: rgba(0, 0, 0, 0) none repeat scroll 0% 0%;" preserveAspectRatio="xMidYMid"><defs><filter id="editing-hole" x="-100%" y="-100%" width="300%" height="300%"><feFlood flood-color="#000000" result="black"></feFlood><feMorphology operator="dilate" radius="2" in="SourceGraphic" result="erode"></feMorphology><feGaussianBlur in="erode" stdDeviation="4" result="blur"></feGaussianBlur><feOffset in="blur" dx="2" dy="2" result="offset"></feOffset><feComposite operator="atop" in="offset" in2="black" result="merge"></feComposite><feComposite operator="in" in="merge" in2="SourceGraphic" result="inner-shadow"></feComposite></filter></defs><g filter="url(#editing-hole)"><g transform="translate(-237.8749451637268, 104.85396924225007)"><path d="M15.94 0.38L15.94 0.38Q9.60 0.38 6.62-3.78L6.62-3.78L6.62-3.78Q3.65-7.94 3.65-16.83L3.65-16.83L3.65-16.83Q3.65-23.23 4.93-27.14L4.93-27.14L4.93-27.14Q6.21-31.04 9.02-32.83L9.02-32.83L9.02-32.83Q11.84-34.62 16.58-34.62L16.58-34.62L16.58-34.62Q21.44-34.62 27.07-32.58L27.07-32.58L27.07-48.83L32.13-48.83L32.13 0L28.03 0L27.07-3.46L27.07-3.46Q25.54-2.11 22.14-0.86L22.14-0.86L22.14-0.86Q18.75 0.38 15.94 0.38L15.94 0.38ZM17.41-3.78L17.41-3.78Q20.10-3.78 22.37-4.58L22.37-4.58L22.37-4.58Q24.64-5.38 27.07-6.66L27.07-6.66L27.07-28.99L27.07-28.99Q24.06-29.89 22.18-30.27L22.18-30.27L22.18-30.27Q20.29-30.66 17.92-30.66L17.92-30.66L17.92-30.66Q14.53-30.66 12.54-29.41L12.54-29.41L12.54-29.41Q10.56-28.16 9.63-25.22L9.63-25.22L9.63-25.22Q8.70-22.27 8.70-17.02L8.70-17.02L8.70-17.02Q8.70-9.86 10.69-6.82L10.69-6.82L10.69-6.82Q12.67-3.78 17.41-3.78L17.41-3.78ZM48.32 0.38L48.32 0.38Q44.48 0.38 42.08-1.92L42.08-1.92L42.08-1.92Q39.68-4.22 39.68-8.19L39.68-8.19L39.68-10.62L39.68-10.62Q39.68-14.78 42.40-17.22L42.40-17.22L42.40-17.22Q45.12-19.65 50.37-19.65L50.37-19.65L61.95-19.65L61.95-23.87L61.95-23.87Q61.95-27.33 60.06-28.99L60.06-28.99L60.06-28.99Q58.18-30.66 53.12-30.66L53.12-30.66L42.50-30.66L42.50-33.66L42.50-33.66Q48.51-34.69 54.98-34.69L54.98-34.69L54.98-34.69Q61.18-34.69 64.10-32.16L64.10-32.16L64.10-32.16Q67.01-29.63 67.01-24.13L67.01-24.13L67.01 0L63.10 0L62.14-3.90L62.14-3.90Q61.70-3.52 59.36-2.43L59.36-2.43L59.36-2.43Q57.02-1.34 54.02-0.48L54.02-0.48L54.02-0.48Q51.01 0.38 48.32 0.38L48.32 0.38ZM50.56-3.39L50.56-3.39Q52.29-3.39 54.78-4.03L54.78-4.03L54.78-4.03Q57.28-4.67 59.30-5.38L59.30-5.38L59.30-5.38Q61.31-6.08 61.95-6.34L61.95-6.34L61.95-17.09L51.52-16.64L51.52-16.64Q48.00-16.51 46.37-14.91L46.37-14.91L46.37-14.91Q44.74-13.31 44.74-10.56L44.74-10.56L44.74-9.02L44.74-9.02Q44.74-6.08 46.43-4.74L46.43-4.74L46.43-4.74Q48.13-3.39 50.56-3.39L50.56-3.39ZM76.54 0L76.54-34.18L80.51-34.18L81.60-30.40L81.60-30.40Q84.29-32.26 87.55-33.50L87.55-33.50L87.55-33.50Q90.82-34.75 94.08-34.75L94.08-34.75L94.08-34.75Q99.39-34.75 102.02-31.49L102.02-31.49L102.02-31.49Q104.64-28.22 104.64-23.23L104.64-23.23L104.64 0L99.58 0L99.58-22.66L99.58-22.66Q99.58-25.98 97.70-28.06L97.70-28.06L97.70-28.06Q95.81-30.14 92.48-30.14L92.48-30.14L92.48-30.14Q89.41-30.14 87.01-29.34L87.01-29.34L87.01-29.34Q84.61-28.54 81.60-26.82L81.60-26.82L81.60 0L76.54 0ZM114.94-40.26L114.94-40.26Q114.50-40.26 114.21-40.54L114.21-40.54L114.21-40.54Q113.92-40.83 113.92-41.28L113.92-41.28L113.92-46.27L113.92-46.27Q113.92-47.30 114.94-47.30L114.94-47.30L118.53-47.30L118.53-47.30Q119.49-47.30 119.49-46.27L119.49-46.27L119.49-41.28L119.49-41.28Q119.49-40.26 118.53-40.26L118.53-40.26L114.94-40.26ZM114.18 0L114.18-34.18L119.23-34.18L119.23 0L114.18 0ZM142.02 0.38L142.02 0.38Q136.51 0.38 133.47-1.22L133.47-1.22L133.47-1.22Q130.43-2.82 129.09-6.59L129.09-6.59L129.09-6.59Q127.74-10.37 127.74-17.15L127.74-17.15L127.74-17.15Q127.74-24 129.12-27.78L129.12-27.78L129.12-27.78Q130.50-31.55 133.57-33.09L133.57-33.09L133.57-33.09Q136.64-34.62 142.08-34.62L142.08-34.62L142.08-34.62Q146.75-34.62 149.57-33.60L149.57-33.60L149.57-33.60Q152.38-32.58 153.73-30.11L153.73-30.11L153.73-30.11Q155.07-27.65 155.07-23.30L155.07-23.30L155.07-23.30Q155.07-18.94 152.54-16.99L152.54-16.99L152.54-16.99Q150.02-15.04 145.34-15.04L145.34-15.04L132.80-15.04L132.80-15.04Q132.86-10.62 133.70-8.22L133.70-8.22L133.70-8.22Q134.53-5.82 136.77-4.70L136.77-4.70L136.77-4.70Q139.01-3.58 143.23-3.58L143.23-3.58L154.24-3.58L154.24-0.51L154.24-0.51Q150.78-0.06 148.10 0.16L148.10 0.16L148.10 0.16Q145.41 0.38 142.02 0.38L142.02 0.38ZM132.74-18.37L144.90-18.37L144.90-18.37Q147.84-18.37 149.18-19.46L149.18-19.46L149.18-19.46Q150.53-20.54 150.53-23.23L150.53-23.23L150.53-23.23Q150.53-27.52 148.64-29.15L148.64-29.15L148.64-29.15Q146.75-30.78 142.08-30.78L142.08-30.78L142.08-30.78Q138.37-30.78 136.38-29.70L136.38-29.70L136.38-29.70Q134.40-28.61 133.57-25.98L133.57-25.98L133.57-25.98Q132.74-23.36 132.74-18.37L132.74-18.37ZM172.54 0.06L172.54 0.06Q168.00 0.06 165.79-2.43L165.79-2.43L165.79-2.43Q163.58-4.93 163.58-10.94L163.58-10.94L163.58-48.83L168.64-48.83L168.64-11.58L168.64-11.58Q168.64-7.36 169.79-5.82L169.79-5.82L169.79-5.82Q170.94-4.29 173.44-3.97L173.44-3.97L176.90-3.58L176.90 0.06L172.54 0.06ZM182.53 0.06L182.53 0.06Q182.08 0.06 181.79-0.22L181.79-0.22L181.79-0.22Q181.50-0.51 181.50-0.96L181.50-0.96L181.50-6.08L181.50-6.08Q181.50-7.10 182.53-7.10L182.53-7.10L185.34-7.10L185.34-7.10Q186.37-7.10 186.37-6.08L186.37-6.08L186.37-0.96L186.37-0.96Q186.37 0.06 185.34 0.06L185.34 0.06L182.53 0.06ZM195.20 0L195.20-34.18L199.17-34.18L200.26-30.40L200.26-30.40Q206.66-34.75 213.06-34.75L213.06-34.75L213.06-34.75Q216.13-34.75 218.40-33.38L218.40-33.38L218.40-33.38Q220.67-32 221.95-29.70L221.95-29.70L221.95-29.70Q224.64-31.68 228.51-33.22L228.51-33.22L228.51-33.22Q232.38-34.75 235.71-34.75L235.71-34.75L235.71-34.75Q241.02-34.75 243.71-31.49L243.71-31.49L243.71-31.49Q246.40-28.22 246.40-23.04L246.40-23.04L246.40 0L241.34 0L241.34-22.66L241.34-22.66Q241.34-25.98 239.39-28.06L239.39-28.06L239.39-28.06Q237.44-30.14 234.11-30.14L234.11-30.14L234.11-30.14Q231.36-30.14 228.38-29.12L228.38-29.12L228.38-29.12Q225.41-28.10 222.66-26.43L222.66-26.43L222.66-26.43Q223.30-24.38 223.30-22.59L223.30-22.59L223.30 0L218.24 0L218.24-22.66L218.24-22.66Q218.24-25.98 216.35-28.06L216.35-28.06L216.35-28.06Q214.46-30.14 211.14-30.14L211.14-30.14L211.14-30.14Q208.06-30.14 205.66-29.34L205.66-29.34L205.66-29.34Q203.26-28.54 200.26-26.82L200.26-26.82L200.26 0L195.20 0ZM262.53 0.38L262.53 0.38Q258.69 0.38 256.29-1.92L256.29-1.92L256.29-1.92Q253.89-4.22 253.89-8.19L253.89-8.19L253.89-10.62L253.89-10.62Q253.89-14.78 256.61-17.22L256.61-17.22L256.61-17.22Q259.33-19.65 264.58-19.65L264.58-19.65L276.16-19.65L276.16-23.87L276.16-23.87Q276.16-27.33 274.27-28.99L274.27-28.99L274.27-28.99Q272.38-30.66 267.33-30.66L267.33-30.66L256.70-30.66L256.70-33.66L256.70-33.66Q262.72-34.69 269.18-34.69L269.18-34.69L269.18-34.69Q275.39-34.69 278.30-32.16L278.30-32.16L278.30-32.16Q281.22-29.63 281.22-24.13L281.22-24.13L281.22 0L277.31 0L276.35-3.90L276.35-3.90Q275.90-3.52 273.57-2.43L273.57-2.43L273.57-2.43Q271.23-1.34 268.22-0.48L268.22-0.48L268.22-0.48Q265.22 0.38 262.53 0.38L262.53 0.38ZM264.77-3.39L264.77-3.39Q266.50-3.39 268.99-4.03L268.99-4.03L268.99-4.03Q271.49-4.67 273.50-5.38L273.50-5.38L273.50-5.38Q275.52-6.08 276.16-6.34L276.16-6.34L276.16-17.09L265.73-16.64L265.73-16.64Q262.21-16.51 260.58-14.91L260.58-14.91L260.58-14.91Q258.94-13.31 258.94-10.56L258.94-10.56L258.94-9.02L258.94-9.02Q258.94-6.08 260.64-4.74L260.64-4.74L260.64-4.74Q262.34-3.39 264.77-3.39L264.77-3.39ZM291.52-40.26L291.52-40.26Q291.07-40.26 290.78-40.54L290.78-40.54L290.78-40.54Q290.50-40.83 290.50-41.28L290.50-41.28L290.50-46.27L290.50-46.27Q290.50-47.30 291.52-47.30L291.52-47.30L295.10-47.30L295.10-47.30Q296.06-47.30 296.06-46.27L296.06-46.27L296.06-41.28L296.06-41.28Q296.06-40.26 295.10-40.26L295.10-40.26L291.52-40.26ZM290.75 0L290.75-34.18L295.81-34.18L295.81 0L290.75 0ZM305.54 0L305.54-34.18L309.50-34.18L310.59-30.40L310.59-30.40Q313.28-32.26 316.54-33.50L316.54-33.50L316.54-33.50Q319.81-34.75 323.07-34.75L323.07-34.75L323.07-34.75Q328.38-34.75 331.01-31.49L331.01-31.49L331.01-31.49Q333.63-28.22 333.63-23.23L333.63-23.23L333.63 0L328.58 0L328.58-22.66L328.58-22.66Q328.58-25.98 326.69-28.06L326.69-28.06L326.69-28.06Q324.80-30.14 321.47-30.14L321.47-30.14L321.47-30.14Q318.40-30.14 316-29.34L316-29.34L316-29.34Q313.60-28.54 310.59-26.82L310.59-26.82L310.59 0L305.54 0ZM343.30 0.06L343.30 0.06Q342.85 0.06 342.56-0.22L342.56-0.22L342.56-0.22Q342.27-0.51 342.27-0.96L342.27-0.96L342.27-6.08L342.27-6.08Q342.27-7.10 343.30-7.10L343.30-7.10L346.11-7.10L346.11-7.10Q347.14-7.10 347.14-6.08L347.14-6.08L347.14-0.96L347.14-0.96Q347.14 0.06 346.11 0.06L346.11 0.06L343.30 0.06ZM368.38 0.38L368.38 0.38Q361.86 0.38 358.30-3.42L358.30-3.42L358.30-3.42Q354.75-7.23 354.75-17.02L354.75-17.02L354.75-17.02Q354.75-23.87 356.38-27.71L356.38-27.71L356.38-27.71Q358.02-31.55 361.02-33.06L361.02-33.06L361.02-33.06Q364.03-34.56 368.51-34.56L368.51-34.56L368.51-34.56Q374.66-34.56 379.84-33.66L379.84-33.66L379.84-30.66L369.86-30.66L369.86-30.66Q366.34-30.66 364.19-29.50L364.19-29.50L364.19-29.50Q362.05-28.35 360.93-25.38L360.93-25.38L360.93-25.38Q359.81-22.40 359.81-16.90L359.81-16.90L359.81-16.90Q359.81-11.65 360.99-8.74L360.99-8.74L360.99-8.74Q362.18-5.82 364.35-4.70L364.35-4.70L364.35-4.70Q366.53-3.58 369.92-3.58L369.92-3.58L380.35-3.58L380.35-0.64L380.35-0.64Q374.34 0.38 368.38 0.38L368.38 0.38ZM400.38 0.38L400.38 0.38Q394.88 0.38 391.84-1.22L391.84-1.22L391.84-1.22Q388.80-2.82 387.46-6.59L387.46-6.59L387.46-6.59Q386.11-10.37 386.11-17.15L386.11-17.15L386.11-17.15Q386.11-24 387.49-27.78L387.49-27.78L387.49-27.78Q388.86-31.55 391.94-33.09L391.94-33.09L391.94-33.09Q395.01-34.62 400.45-34.62L400.45-34.62L400.45-34.62Q405.12-34.62 407.94-33.60L407.94-33.60L407.94-33.60Q410.75-32.58 412.10-30.11L412.10-30.11L412.10-30.11Q413.44-27.65 413.44-23.30L413.44-23.30L413.44-23.30Q413.44-18.94 410.91-16.99L410.91-16.99L410.91-16.99Q408.38-15.04 403.71-15.04L403.71-15.04L391.17-15.04L391.17-15.04Q391.23-10.62 392.06-8.22L392.06-8.22L392.06-8.22Q392.90-5.82 395.14-4.70L395.14-4.70L395.14-4.70Q397.38-3.58 401.60-3.58L401.60-3.58L412.61-3.58L412.61-0.51L412.61-0.51Q409.15-0.06 406.46 0.16L406.46 0.16L406.46 0.16Q403.78 0.38 400.38 0.38L400.38 0.38ZM391.10-18.37L403.26-18.37L403.26-18.37Q406.21-18.37 407.55-19.46L407.55-19.46L407.55-19.46Q408.90-20.54 408.90-23.23L408.90-23.23L408.90-23.23Q408.90-27.52 407.01-29.15L407.01-29.15L407.01-29.15Q405.12-30.78 400.45-30.78L400.45-30.78L400.45-30.78Q396.74-30.78 394.75-29.70L394.75-29.70L394.75-29.70Q392.77-28.61 391.94-25.98L391.94-25.98L391.94-25.98Q391.10-23.36 391.10-18.37L391.10-18.37ZM421.95 0L421.95-34.18L425.79-34.18L427.01-28.22L427.01-28.22Q429.50-31.23 432.38-32.90L432.38-32.90L432.38-32.90Q435.26-34.56 438.72-34.56L438.72-34.56L438.72-34.56Q440.45-34.56 441.92-34.24L441.92-34.24L441.92-29.06L441.92-29.06Q439.04-29.38 438.21-29.38L438.21-29.38L438.21-29.38Q434.82-29.38 432.35-28.16L432.35-28.16L432.35-28.16Q429.89-26.94 427.01-24.26L427.01-24.26L427.01 0L421.95 0ZM448.32 0L448.32-34.18L452.29-34.18L453.38-30.40L453.38-30.40Q456.06-32.26 459.33-33.50L459.33-33.50L459.33-33.50Q462.59-34.75 465.86-34.75L465.86-34.75L465.86-34.75Q471.17-34.75 473.79-31.49L473.79-31.49L473.79-31.49Q476.42-28.22 476.42-23.23L476.42-23.23L476.42 0L471.36 0L471.36-22.66L471.36-22.66Q471.36-25.98 469.47-28.06L469.47-28.06L469.47-28.06Q467.58-30.14 464.26-30.14L464.26-30.14L464.26-30.14Q461.18-30.14 458.78-29.34L458.78-29.34L458.78-29.34Q456.38-28.54 453.38-26.82L453.38-26.82L453.38 0L448.32 0ZM485.95 0L485.95-48.83L491.01-48.83L491.01-30.40L491.01-30.40Q493.63-32.26 496.93-33.50L496.93-33.50L496.93-33.50Q500.22-34.75 503.55-34.75L503.55-34.75L503.55-34.75Q508.74-34.75 511.39-31.55L511.39-31.55L511.39-31.55Q514.05-28.35 514.05-23.30L514.05-23.30L514.05 0L508.99 0L508.99-22.72L508.99-22.72Q508.99-25.98 507.07-28.06L507.07-28.06L507.07-28.06Q505.15-30.14 501.89-30.14L501.89-30.14L501.89-30.14Q498.82-30.14 496.42-29.34L496.42-29.34L496.42-29.34Q494.02-28.54 491.01-26.82L491.01-26.82L491.01 0L485.95 0ZM537.15 0.38L537.15 0.38Q531.90 0.38 528.70-1.09L528.70-1.09L528.70-1.09Q525.50-2.56 523.94-6.37L523.94-6.37L523.94-6.37Q522.37-10.18 522.37-17.15L522.37-17.15L522.37-17.15Q522.37-24.19 523.97-28L523.97-28L523.97-28Q525.57-31.81 528.70-33.22L528.70-33.22L528.70-33.22Q531.84-34.62 537.15-34.62L537.15-34.62L537.15-34.62Q542.40-34.62 545.60-33.18L545.60-33.18L545.60-33.18Q548.80-31.74 550.40-27.94L550.40-27.94L550.40-27.94Q552-24.13 552-17.15L552-17.15L552-17.15Q552-10.18 550.40-6.37L550.40-6.37L550.40-6.37Q548.80-2.56 545.63-1.09L545.63-1.09L545.63-1.09Q542.46 0.38 537.15 0.38L537.15 0.38ZM537.15-3.78L537.15-3.78Q540.67-3.78 542.69-4.70L542.69-4.70L542.69-4.70Q544.70-5.63 545.79-8.51L545.79-8.51L545.79-8.51Q546.88-11.39 546.88-17.15L546.88-17.15L546.88-17.15Q546.88-22.91 545.82-25.76L545.82-25.76L545.82-25.76Q544.77-28.61 542.72-29.54L542.72-29.54L542.72-29.54Q540.67-30.46 537.15-30.46L537.15-30.46L537.15-30.46Q533.57-30.46 531.55-29.54L531.55-29.54L531.55-29.54Q529.54-28.61 528.48-25.76L528.48-25.76L528.48-25.76Q527.42-22.91 527.42-17.15L527.42-17.15L527.42-17.15Q527.42-11.39 528.48-8.51L528.48-8.51L528.48-8.51Q529.54-5.63 531.55-4.70L531.55-4.70L531.55-4.70Q533.57-3.78 537.15-3.78L537.15-3.78ZM562.37 0L562.37-30.02L557.12-30.02L557.12-33.28L562.37-34.18L562.37-38.08L562.37-38.08Q562.37-43.78 564.58-46.50L564.58-46.50L564.58-46.50Q566.78-49.22 572.16-49.22L572.16-49.22L572.16-49.22Q575.42-49.22 578.75-48.58L578.75-48.58L578.75-44.99L573.06-44.99L573.06-44.99Q569.79-44.99 568.61-43.42L568.61-43.42L568.61-43.42Q567.42-41.86 567.42-38.34L567.42-38.34L567.42-34.18L578.05-34.18L578.05-30.02L567.42-30.02L567.42 0L562.37 0ZM585.92 0L585.92-30.02L580.67-30.02L580.67-33.28L585.92-34.18L585.92-38.08L585.92-38.08Q585.92-43.78 588.13-46.50L588.13-46.50L588.13-46.50Q590.34-49.22 595.71-49.22L595.71-49.22L595.71-49.22Q598.98-49.22 602.30-48.58L602.30-48.58L602.30-44.99L596.61-44.99L596.61-44.99Q593.34-44.99 592.16-43.42L592.16-43.42L592.16-43.42Q590.98-41.86 590.98-38.34L590.98-38.34L590.98-34.18L601.60-34.18L601.60-30.02L590.98-30.02L590.98 0L585.92 0ZM619.52 10.50L619.52 10.50Q614.02 10.50 610.66 7.33L610.66 7.33L610.66 7.33Q607.30 4.16 607.30-2.11L607.30-2.11L607.30-22.72L607.30-22.72Q607.30-27.26 609.86-30.88L609.86-30.88L609.86-30.88Q612.42-34.50 619.52-34.50L619.52-34.50L631.74-34.50L631.74-34.50Q636.42-34.50 639.39-32.45L639.39-32.45L639.39-32.45Q642.37-30.40 642.37-24.90L642.37-24.90L642.37-1.73L639.23-1.73L638.46-5.63L638.46-5.63Q638.34-5.57 634.66-3.36L634.66-3.36L634.66-3.36Q630.98-1.15 625.92-1.15L625.92-1.15L625.92-1.15Q622.14-1.15 619.94-3.52L619.94-3.52L619.94-3.52Q617.73-5.89 617.73-9.28L617.73-9.28L617.73-12.22L617.73-12.22Q617.73-16 620.03-18.05L620.03-18.05L620.03-18.05Q622.34-20.10 626.56-20.10L626.56-20.10L638.34-20.10L638.34-24.58L638.34-24.58Q638.34-30.46 631.74-30.46L631.74-30.46L619.52-30.46L619.52-30.46Q615.68-30.46 613.50-28.67L613.50-28.67L613.50-28.67Q611.33-26.88 611.33-22.53L611.33-22.53L611.33-2.56L611.33-2.56Q611.33 2.24 613.73 4.32L613.73 4.32L613.73 4.32Q616.13 6.40 619.52 6.40L619.52 6.40L639.94 6.40L639.94 6.40Q644.48 6.40 646.59 4.16L646.59 4.16L646.59 4.16Q648.70 1.92 648.70-2.56L648.70-2.56L648.70-33.22L648.70-33.22Q648.70-37.63 646.43-40.22L646.43-40.22L646.43-40.22Q644.16-42.82 639.94-42.82L639.94-42.82L614.72-42.82L614.72-45.82L614.72-45.82Q616.96-46.27 622.27-46.56L622.27-46.56L622.27-46.56Q627.58-46.85 633.79-46.85L633.79-46.85L639.94-46.85L639.94-46.85Q645.57-46.85 649.15-43.46L649.15-43.46L649.15-43.46Q652.74-40.06 652.74-33.22L652.74-33.22L652.74-2.56L652.74-2.56Q652.74 3.84 649.73 7.17L649.73 7.17L649.73 7.17Q646.72 10.50 640.13 10.50L640.13 10.50L619.52 10.50ZM627.46-5.18L627.46-5.18Q629.76-5.18 633.09-6.27L633.09-6.27L633.09-6.27Q636.42-7.36 638.34-8.58L638.34-8.58L638.34-17.34L627.46-16.77L627.46-16.77Q625.09-16.64 623.52-15.74L623.52-15.74L623.52-15.74Q621.95-14.85 621.95-12.29L621.95-12.29L621.95-10.05L621.95-10.05Q621.95-7.81 623.42-6.50L623.42-6.50L623.42-6.50Q624.90-5.18 627.46-5.18L627.46-5.18ZM664.26-40.26L664.26-40.26Q663.81-40.26 663.52-40.54L663.52-40.54L663.52-40.54Q663.23-40.83 663.23-41.28L663.23-41.28L663.23-46.27L663.23-46.27Q663.23-47.30 664.26-47.30L664.26-47.30L667.84-47.30L667.84-47.30Q668.80-47.30 668.80-46.27L668.80-46.27L668.80-41.28L668.80-41.28Q668.80-40.26 667.84-40.26L667.84-40.26L664.26-40.26ZM663.49 0L663.49-34.18L668.54-34.18L668.54 0L663.49 0ZM690.69 0.38L690.69 0.38Q684.16 0.38 680.61-3.42L680.61-3.42L680.61-3.42Q677.06-7.23 677.06-17.02L677.06-17.02L677.06-17.02Q677.06-23.87 678.69-27.71L678.69-27.71L678.69-27.71Q680.32-31.55 683.33-33.06L683.33-33.06L683.33-33.06Q686.34-34.56 690.82-34.56L690.82-34.56L690.82-34.56Q696.96-34.56 702.14-33.66L702.14-33.66L702.14-30.66L692.16-30.66L692.16-30.66Q688.64-30.66 686.50-29.50L686.50-29.50L686.50-29.50Q684.35-28.35 683.23-25.38L683.23-25.38L683.23-25.38Q682.11-22.40 682.11-16.90L682.11-16.90L682.11-16.90Q682.11-11.65 683.30-8.74L683.30-8.74L683.30-8.74Q684.48-5.82 686.66-4.70L686.66-4.70L686.66-4.70Q688.83-3.58 692.22-3.58L692.22-3.58L702.66-3.58L702.66-0.64L702.66-0.64Q696.64 0.38 690.69 0.38L690.69 0.38ZM718.59 0.06L718.59 0.06Q714.05 0.06 711.84-2.43L711.84-2.43L711.84-2.43Q709.63-4.93 709.63-10.94L709.63-10.94L709.63-48.83L714.69-48.83L714.69-11.58L714.69-11.58Q714.69-7.36 715.84-5.82L715.84-5.82L715.84-5.82Q716.99-4.29 719.49-3.97L719.49-3.97L722.94-3.58L722.94 0.06L718.59 0.06ZM742.02 0.38L742.02 0.38Q736.77 0.38 733.57-1.09L733.57-1.09L733.57-1.09Q730.37-2.56 728.80-6.37L728.80-6.37L728.80-6.37Q727.23-10.18 727.23-17.15L727.23-17.15L727.23-17.15Q727.23-24.19 728.83-28L728.83-28L728.83-28Q730.43-31.81 733.57-33.22L733.57-33.22L733.57-33.22Q736.70-34.62 742.02-34.62L742.02-34.62L742.02-34.62Q747.26-34.62 750.46-33.18L750.46-33.18L750.46-33.18Q753.66-31.74 755.26-27.94L755.26-27.94L755.26-27.94Q756.86-24.13 756.86-17.15L756.86-17.15L756.86-17.15Q756.86-10.18 755.26-6.37L755.26-6.37L755.26-6.37Q753.66-2.56 750.50-1.09L750.50-1.09L750.50-1.09Q747.33 0.38 742.02 0.38L742.02 0.38ZM742.02-3.78L742.02-3.78Q745.54-3.78 747.55-4.70L747.55-4.70L747.55-4.70Q749.57-5.63 750.66-8.51L750.66-8.51L750.66-8.51Q751.74-11.39 751.74-17.15L751.74-17.15L751.74-17.15Q751.74-22.91 750.69-25.76L750.69-25.76L750.69-25.76Q749.63-28.61 747.58-29.54L747.58-29.54L747.58-29.54Q745.54-30.46 742.02-30.46L742.02-30.46L742.02-30.46Q738.43-30.46 736.42-29.54L736.42-29.54L736.42-29.54Q734.40-28.61 733.34-25.76L733.34-25.76L733.34-25.76Q732.29-22.91 732.29-17.15L732.29-17.15L732.29-17.15Q732.29-11.39 733.34-8.51L733.34-8.51L733.34-8.51Q734.40-5.63 736.42-4.70L736.42-4.70L736.42-4.70Q738.43-3.78 742.02-3.78L742.02-3.78ZM775.55 0.38L775.55 0.38Q765.31 0.38 765.31-10.11L765.31-10.11L765.31-34.18L770.37-34.18L770.37-11.39L770.37-11.39Q770.37-7.30 772.19-5.70L772.19-5.70L772.19-5.70Q774.02-4.10 777.79-4.10L777.79-4.10L777.79-4.10Q780.67-4.10 783.17-4.90L783.17-4.90L783.17-4.90Q785.66-5.70 788.42-7.36L788.42-7.36L788.42-34.18L793.47-34.18L793.47 0L789.50 0L788.42-3.78L788.42-3.78Q781.89 0.38 775.55 0.38L775.55 0.38ZM814.08 0.38L814.08 0.38Q807.74 0.38 804.77-3.78L804.77-3.78L804.77-3.78Q801.79-7.94 801.79-16.83L801.79-16.83L801.79-16.83Q801.79-23.23 803.07-27.14L803.07-27.14L803.07-27.14Q804.35-31.04 807.17-32.83L807.17-32.83L807.17-32.83Q809.98-34.62 814.72-34.62L814.72-34.62L814.72-34.62Q819.58-34.62 825.22-32.58L825.22-32.58L825.22-48.83L830.27-48.83L830.27 0L826.18 0L825.22-3.46L825.22-3.46Q823.68-2.11 820.29-0.86L820.29-0.86L820.29-0.86Q816.90 0.38 814.08 0.38L814.08 0.38ZM815.55-3.78L815.55-3.78Q818.24-3.78 820.51-4.58L820.51-4.58L820.51-4.58Q822.78-5.38 825.22-6.66L825.22-6.66L825.22-28.99L825.22-28.99Q822.21-29.89 820.32-30.27L820.32-30.27L820.32-30.27Q818.43-30.66 816.06-30.66L816.06-30.66L816.06-30.66Q812.67-30.66 810.69-29.41L810.69-29.41L810.69-29.41Q808.70-28.16 807.78-25.22L807.78-25.22L807.78-25.22Q806.85-22.27 806.85-17.02L806.85-17.02L806.85-17.02Q806.85-9.86 808.83-6.82L808.83-6.82L808.83-6.82Q810.82-3.78 815.55-3.78L815.55-3.78ZM839.94 0.06L839.94 0.06Q839.49 0.06 839.20-0.22L839.20-0.22L839.20-0.22Q838.91-0.51 838.91-0.96L838.91-0.96L838.91-6.08L838.91-6.08Q838.91-7.10 839.94-7.10L839.94-7.10L842.75-7.10L842.75-7.10Q843.78-7.10 843.78-6.08L843.78-6.08L843.78-0.96L843.78-0.96Q843.78 0.06 842.75 0.06L842.75 0.06L839.94 0.06ZM865.02 0.38L865.02 0.38Q858.50 0.38 854.94-3.42L854.94-3.42L854.94-3.42Q851.39-7.23 851.39-17.02L851.39-17.02L851.39-17.02Q851.39-23.87 853.02-27.71L853.02-27.71L853.02-27.71Q854.66-31.55 857.66-33.06L857.66-33.06L857.66-33.06Q860.67-34.56 865.15-34.56L865.15-34.56L865.15-34.56Q871.30-34.56 876.48-33.66L876.48-33.66L876.48-30.66L866.50-30.66L866.50-30.66Q862.98-30.66 860.83-29.50L860.83-29.50L860.83-29.50Q858.69-28.35 857.57-25.38L857.57-25.38L857.57-25.38Q856.45-22.40 856.45-16.90L856.45-16.90L856.45-16.90Q856.45-11.65 857.63-8.74L857.63-8.74L857.63-8.74Q858.82-5.82 860.99-4.70L860.99-4.70L860.99-4.70Q863.17-3.58 866.56-3.58L866.56-3.58L876.99-3.58L876.99-0.64L876.99-0.64Q870.98 0.38 865.02 0.38L865.02 0.38ZM897.54 0.38L897.54 0.38Q892.29 0.38 889.09-1.09L889.09-1.09L889.09-1.09Q885.89-2.56 884.32-6.37L884.32-6.37L884.32-6.37Q882.75-10.18 882.75-17.15L882.75-17.15L882.75-17.15Q882.75-24.19 884.35-28L884.35-28L884.35-28Q885.95-31.81 889.09-33.22L889.09-33.22L889.09-33.22Q892.22-34.62 897.54-34.62L897.54-34.62L897.54-34.62Q902.78-34.62 905.98-33.18L905.98-33.18L905.98-33.18Q909.18-31.74 910.78-27.94L910.78-27.94L910.78-27.94Q912.38-24.13 912.38-17.15L912.38-17.15L912.38-17.15Q912.38-10.18 910.78-6.37L910.78-6.37L910.78-6.37Q909.18-2.56 906.02-1.09L906.02-1.09L906.02-1.09Q902.85 0.38 897.54 0.38L897.54 0.38ZM897.54-3.78L897.54-3.78Q901.06-3.78 903.07-4.70L903.07-4.70L903.07-4.70Q905.09-5.63 906.18-8.51L906.18-8.51L906.18-8.51Q907.26-11.39 907.26-17.15L907.26-17.15L907.26-17.15Q907.26-22.91 906.21-25.76L906.21-25.76L906.21-25.76Q905.15-28.61 903.10-29.54L903.10-29.54L903.10-29.54Q901.06-30.46 897.54-30.46L897.54-30.46L897.54-30.46Q893.95-30.46 891.94-29.54L891.94-29.54L891.94-29.54Q889.92-28.61 888.86-25.76L888.86-25.76L888.86-25.76Q887.81-22.91 887.81-17.15L887.81-17.15L887.81-17.15Q887.81-11.39 888.86-8.51L888.86-8.51L888.86-8.51Q889.92-5.63 891.94-4.70L891.94-4.70L891.94-4.70Q893.95-3.78 897.54-3.78L897.54-3.78ZM920.90 0L920.90-34.18L924.86-34.18L925.95-30.40L925.95-30.40Q932.35-34.75 938.75-34.75L938.75-34.75L938.75-34.75Q941.82-34.75 944.10-33.38L944.10-33.38L944.10-33.38Q946.37-32 947.65-29.70L947.65-29.70L947.65-29.70Q950.34-31.68 954.21-33.22L954.21-33.22L954.21-33.22Q958.08-34.75 961.41-34.75L961.41-34.75L961.41-34.75Q966.72-34.75 969.41-31.49L969.41-31.49L969.41-31.49Q972.10-28.22 972.10-23.04L972.10-23.04L972.10 0L967.04 0L967.04-22.66L967.04-22.66Q967.04-25.98 965.09-28.06L965.09-28.06L965.09-28.06Q963.14-30.14 959.81-30.14L959.81-30.14L959.81-30.14Q957.06-30.14 954.08-29.12L954.08-29.12L954.08-29.12Q951.10-28.10 948.35-26.43L948.35-26.43L948.35-26.43Q948.99-24.38 948.99-22.59L948.99-22.59L948.99 0L943.94 0L943.94-22.66L943.94-22.66Q943.94-25.98 942.05-28.06L942.05-28.06L942.05-28.06Q940.16-30.14 936.83-30.14L936.83-30.14L936.83-30.14Q933.76-30.14 931.36-29.34L931.36-29.34L931.36-29.34Q928.96-28.54 925.95-26.82L925.95-26.82L925.95 0L920.90 0Z" fill="#d2cbfd"></path></g></g><style>text {
  font-size: 64px;
  font-family: Arial Black;
  dominant-baseline: central;
  text-anchor: middle;
}</style></svg>